# xmcd
# 
# Track frame offsets:
#     150
#     13486
#     34505
#     56009
#     65898
#     87349
#     111558
#     127012
#     140515
#     153771
#     166096
#     184653
#     203401
#     210584
#     225496
#     250555
#     265084
#     277390
#     291904
#     309007
# 
# Disc length: 4410
# 
# Revision: 0
# Processed by: cddbd v1.5.2PL0 Copyright (c) Steve Scherf et al.
# Submitted via: fre:ac v1.0.31
# 
DISCID=20113814
DTITLE=Fernando Delgadillo - 20 Éxitos Originales
DYEAR=2013
DGENRE=Canción Informal
TTITLE0=Hoy Ten Miedo De Mí
TTITLE1=No Me Pidas Ser Tu Amigo
TTITLE2=Mi Tiempo
TTITLE3=Puede Que Pueda
TTITLE4=Carbonero
TTITLE5=Primera Estrella De La Tarde
TTITLE6=Tus Cartas
TTITLE7=Vuelos
TTITLE8=Bienvenida
TTITLE9=DÍas De Sombrillas
TTITLE10=Al Sol De Mediodía
TTITLE11=Llovizna
TTITLE12=Reflexiones En La Mesa
TTITLE13=El Rag De Las Tres
TTITLE14=Evoluciones
TTITLE15=Los Primeros Seis Minutos
TTITLE16=En Tu Cumpleaños
TTITLE17=Hoy Hace Un Buen Día
TTITLE18=A Tu Vuelta
TTITLE19=Mi Cerrada
EXTD=
EXTT0=
EXTT1=
EXTT2=
EXTT3=
EXTT4=
EXTT5=
EXTT6=
EXTT7=
EXTT8=
EXTT9=
EXTT10=
EXTT11=
EXTT12=
EXTT13=
EXTT14=
EXTT15=
EXTT16=
EXTT17=
EXTT18=
EXTT19=
PLAYORDER=
